<?xml version="1.0" standalone="no"?>
<!DOCTYPE svg PUBLIC "-//W3C//DTD SVG 20010904//EN"
 "http://www.w3.org/TR/2001/REC-SVG-20010904/DTD/svg10.dtd">
<svg version="1.0" xmlns="http://www.w3.org/2000/svg"
 width="156.000000pt" height="56.000000pt" viewBox="0 0 156.000000 56.000000"
 preserveAspectRatio="xMidYMid meet">

<g transform="translate(0.000000,56.000000) scale(0.100000,-0.100000)"
fill="#000000" stroke="none">
<path d="M236 489 c-72 -17 -136 -71 -136 -115 0 -11 8 -5 23 17 34 50 103 88
178 98 55 7 58 9 19 9 -25 0 -63 -4 -84 -9z"/>
<path d="M400 476 c0 -3 9 -10 20 -16 11 -6 20 -8 20 -6 0 3 -9 10 -20 16 -11
6 -20 8 -20 6z"/>
<path d="M461 411 c-24 -16 -80 -67 -125 -114 -72 -75 -77 -83 -43 -64 21 12
54 43 73 69 32 43 68 78 126 120 36 27 18 20 -31 -11z"/>
<path d="M723 401 c-55 -44 -183 -175 -183 -187 0 -5 48 39 108 98 59 59 118
112 132 117 16 6 19 10 8 10 -9 1 -38 -16 -65 -38z"/>
<path d="M240 414 c-41 -18 -100 -61 -100 -74 0 -5 11 2 25 16 50 50 146 79
173 52 8 -8 12 -8 12 -1 0 26 -58 30 -110 7z"/>
<path d="M996 331 c-58 -59 -73 -69 -95 -65 -19 4 -43 -6 -90 -36 -73 -47 -94
-45 -36 5 l40 33 -40 0 c-54 0 -115 -34 -115 -65 0 -27 18 -30 46 -7 18 14 18
15 -4 4 -13 -7 -26 -9 -29 -6 -10 9 26 43 58 56 37 16 52 3 22 -17 -23 -16
-32 -53 -13 -53 6 0 22 7 35 16 23 15 25 15 25 0 0 -9 8 -16 18 -16 14 0 15 2
2 10 -12 7 -12 12 4 28 20 23 74 48 83 38 4 -3 -4 -17 -17 -31 -18 -20 -21
-28 -12 -37 9 -9 15 -9 25 1 10 10 9 11 -5 6 -39 -15 -13 17 85 109 56 53 97
96 92 96 -6 0 -42 -31 -79 -69z"/>
<path d="M1145 320 c-10 -11 -24 -20 -32 -20 -7 0 -12 -4 -10 -8 1 -5 -13 -23
-30 -39 -18 -17 -33 -37 -33 -44 0 -7 22 8 48 34 29 28 57 47 72 48 19 1 20 3
7 6 -18 5 -18 6 -1 24 9 10 13 19 7 19 -5 0 -18 -9 -28 -20z"/>
<path d="M245 310 c-13 -6 -15 -9 -5 -9 8 0 22 4 30 9 18 12 2 12 -25 0z"/>
<path d="M1050 310 c0 -5 5 -10 10 -10 6 0 10 5 10 10 0 6 -4 10 -10 10 -5 0
-10 -4 -10 -10z"/>
<path d="M168 293 c12 -2 30 -2 40 0 9 3 -1 5 -23 4 -22 0 -30 -2 -17 -4z"/>
<path d="M390 238 c-19 -16 -26 -26 -15 -20 18 9 64 53 54 52 -2 -1 -20 -15
-39 -32z"/>
<path d="M460 248 c-42 -29 -53 -52 -16 -35 13 6 20 15 14 18 -5 3 8 13 29 22
21 9 31 16 22 16 -9 1 -31 -9 -49 -21z"/>
<path d="M633 242 l-21 -28 22 -1 c11 -1 15 1 8 4 -10 4 -8 11 9 29 12 13 18
24 13 24 -6 0 -20 -13 -31 -28z"/>
<path d="M985 246 c-11 -13 -23 -22 -26 -20 -3 2 -6 -3 -6 -11 0 -11 6 -10 27
5 39 28 56 50 39 50 -8 0 -23 -11 -34 -24z"/>
<path d="M1159 249 l-24 -21 25 16 c40 26 47 18 12 -15 -31 -29 -35 -49 -9
-49 9 0 9 2 -1 8 -9 6 -4 16 18 37 16 16 30 32 30 37 0 15 -28 8 -51 -13z"/>
<path d="M1252 245 c-11 -13 -21 -23 -23 -20 -3 2 -15 -5 -29 -16 -20 -15 -21
-18 -5 -12 30 10 -74 -96 -110 -113 -16 -7 -23 -13 -14 -14 18 0 84 45 113 79
11 11 25 21 33 21 8 0 12 4 9 8 -3 5 10 24 29 42 19 19 35 38 35 42 0 16 -19
8 -38 -17z"/>
<path d="M1316 238 c-25 -16 -46 -32 -46 -36 0 -3 3 -2 7 1 3 4 11 -1 18 -10
10 -13 15 -14 31 -4 18 11 17 12 -3 6 -13 -4 -23 -2 -23 4 0 12 69 61 87 61
19 0 16 -17 -5 -32 -10 -7 -17 -19 -17 -27 0 -18 21 -26 30 -12 4 7 -1 8 -12
4 -11 -3 -3 10 19 33 l38 40 -39 1 c-29 1 -52 -6 -85 -29z"/>
<path d="M503 219 c-6 -6 -28 -17 -49 -24 -23 -8 -31 -14 -19 -15 11 0 38 11
60 25 22 13 35 25 30 25 -6 0 -16 -5 -22 -11z"/>
<path d="M1009 213 c-13 -16 -12 -17 4 -4 16 13 21 21 13 21 -2 0 -10 -8 -17
-17z"/>
<path d="M80 215 c8 -2 33 -7 55 -11 l40 -8 -50 -6 c-35 -4 -17 -6 60 -7 77
-1 119 3 140 13 17 8 21 11 10 8 -48 -15 -104 -15 -155 0 -29 9 -67 15 -84 15
-17 -1 -24 -3 -16 -4z"/>
<path d="M1070 199 c-19 -11 -28 -19 -19 -19 9 0 27 9 40 20 29 23 25 23 -21
-1z"/>
<path d="M565 195 c-16 -8 -23 -14 -14 -15 8 0 24 7 35 15 23 18 18 18 -21 0z"/>
<path d="M965 190 c-16 -7 -17 -9 -3 -9 9 -1 20 4 23 9 7 11 7 11 -20 0z"/>
</g>
</svg>
